<svg width="86" height="45" viewBox="0 0 86 45" fill="none" xmlns="http://www.w3.org/2000/svg">
<g clip-path="url(#clip0_85_227)">
<path d="M67.9044 15.0357H63.9868V18.9756H67.9044V15.0357Z" fill="#EEE9FF"/>
<path d="M62.3878 20.5569H58.4702V24.4967H62.3878V20.5569Z" fill="#EEE9FF"/>
<path d="M73.421 20.5569H69.5034V24.4967H73.421V20.5569Z" fill="#EEE9FF"/>
<path d="M67.9044 26.078H63.9868V30.0178H67.9044V26.078Z" fill="#EEE9FF"/>
<path d="M22.8124 14.7409V20.262H28.3289V24.2555H22.8124V29.723H18.8681V24.2555H13.3516V20.262H18.8681V14.7409H22.8124Z" fill="#EEE9FF"/>
<path d="M63.6672 0.0268017H60.0161L44.8522 15.277L50.3421 20.7981L62.8144 8.25491C63.0276 8.0405 63.3474 7.82609 63.7738 7.82609C71.8488 7.82609 78.5113 14.4193 78.5113 22.6474C78.5113 30.8755 71.9554 37.4687 63.7738 37.4687C55.5922 37.4687 63.1342 37.3615 62.8144 37.1471L49.3827 23.5319L26.0105 0.0268017H22.3595C9.9938 0.0268017 0 10.0774 0 22.5134C0 34.9494 9.9938 45 22.3595 45H26.0105L41.1745 29.7499L35.7911 24.3359L23.2123 36.8791C22.9991 37.0935 22.6793 37.2007 22.3595 37.2007C14.2845 37.2007 7.62194 30.6075 7.62194 22.3794C7.62194 14.1513 14.1779 7.55807 22.3595 7.55807C30.5411 7.55807 22.9991 7.66528 23.2123 7.9869L36.6439 21.4949L59.8829 44.866H63.5339C76.0062 44.9732 86 34.9226 86 22.4866C86 10.0506 76.0062 0 63.6405 0L63.6672 0.0268017Z" fill="#EEE9FF"/>
</g>
<defs>
<clipPath id="clip0_85_227">
<rect width="86" height="45" fill="white"/>
</clipPath>
</defs>
</svg>
